<mxfile host="Electron" modified="2023-09-07T13:06:54.993Z" agent="Mozilla/5.0 (Windows NT 10.0; Win64; x64) AppleWebKit/537.36 (KHTML, like Gecko) draw.io/21.3.7 Chrome/112.0.5615.204 Electron/24.5.0 Safari/537.36" etag="l-pGorQ3ze0DbeWS8q5j" version="21.3.7" type="device">
  <diagram name="Page-1" id="KOc5lzrNY1ax1Q7tnOLz">
    <mxGraphModel dx="1687" dy="993" grid="1" gridSize="10" guides="1" tooltips="1" connect="1" arrows="1" fold="1" page="1" pageScale="1" pageWidth="827" pageHeight="1169" math="0" shadow="0">
      <root>
        <mxCell id="0" />
        <mxCell id="1" parent="0" />
        <mxCell id="ldkix52bEkoFvHIhopIW-28" value="" style="rounded=1;whiteSpace=wrap;html=1;fillColor=#d5e8d4;strokeColor=#82b366;" vertex="1" parent="1">
          <mxGeometry x="10" y="640" width="120" height="240" as="geometry" />
        </mxCell>
        <mxCell id="ldkix52bEkoFvHIhopIW-21" value="" style="rounded=1;whiteSpace=wrap;html=1;fillColor=#f8cecc;strokeColor=#b85450;" vertex="1" parent="1">
          <mxGeometry x="620.44" y="640" width="189.56" height="250" as="geometry" />
        </mxCell>
        <mxCell id="5b1crxVSo52NuIJrR2hu-26" value="" style="rounded=1;whiteSpace=wrap;html=1;fillColor=#fff2cc;strokeColor=#d6b656;" parent="1" vertex="1">
          <mxGeometry x="150" y="640" width="450" height="250" as="geometry" />
        </mxCell>
        <mxCell id="5b1crxVSo52NuIJrR2hu-23" value="" style="rounded=1;whiteSpace=wrap;html=1;fillColor=#dae8fc;strokeColor=#6c8ebf;" parent="1" vertex="1">
          <mxGeometry x="116" y="75" width="704" height="555" as="geometry" />
        </mxCell>
        <mxCell id="7ONHv5lKK2GfBuB7JvL1-2" value="" style="verticalLabelPosition=bottom;html=1;verticalAlign=top;align=center;strokeColor=none;fillColor=#00BEF2;shape=mxgraph.azure.server;" parent="1" vertex="1">
          <mxGeometry x="287.55" y="511" width="136" height="40" as="geometry" />
        </mxCell>
        <mxCell id="7ONHv5lKK2GfBuB7JvL1-3" value="" style="image;aspect=fixed;html=1;points=[];align=center;fontSize=12;image=img/lib/azure2/networking/Virtual_WANs.svg;" parent="1" vertex="1">
          <mxGeometry x="319" y="390" width="71.09" height="70" as="geometry" />
        </mxCell>
        <mxCell id="7ONHv5lKK2GfBuB7JvL1-4" value="" style="sketch=0;pointerEvents=1;shadow=0;dashed=0;html=1;strokeColor=none;fillColor=#005F4B;labelPosition=center;verticalLabelPosition=bottom;verticalAlign=top;align=center;outlineConnect=0;shape=mxgraph.veeam2.esxi_host;" parent="1" vertex="1">
          <mxGeometry x="202" y="315" width="100" height="100" as="geometry" />
        </mxCell>
        <mxCell id="7ONHv5lKK2GfBuB7JvL1-5" value="" style="sketch=0;pointerEvents=1;shadow=0;dashed=0;html=1;strokeColor=none;fillColor=#005F4B;labelPosition=center;verticalLabelPosition=bottom;verticalAlign=top;align=center;outlineConnect=0;shape=mxgraph.veeam2.esxi_host;" parent="1" vertex="1">
          <mxGeometry x="420" y="315" width="100" height="100" as="geometry" />
        </mxCell>
        <mxCell id="7ONHv5lKK2GfBuB7JvL1-6" value="" style="image;aspect=fixed;perimeter=ellipsePerimeter;html=1;align=center;shadow=0;dashed=0;spacingTop=3;image=img/lib/active_directory/windows_server_2.svg;" parent="1" vertex="1">
          <mxGeometry x="180" y="200" width="56" height="70" as="geometry" />
        </mxCell>
        <mxCell id="7ONHv5lKK2GfBuB7JvL1-7" value="" style="image;aspect=fixed;perimeter=ellipsePerimeter;html=1;align=center;shadow=0;dashed=0;spacingTop=3;image=img/lib/active_directory/windows_server_2.svg;" parent="1" vertex="1">
          <mxGeometry x="390" y="200" width="56" height="70" as="geometry" />
        </mxCell>
        <mxCell id="7ONHv5lKK2GfBuB7JvL1-8" value="" style="image;sketch=0;aspect=fixed;html=1;points=[];align=center;fontSize=12;image=img/lib/mscae/VM_Linux.svg;" parent="1" vertex="1">
          <mxGeometry x="452" y="207" width="60.87" height="56" as="geometry" />
        </mxCell>
        <mxCell id="7ONHv5lKK2GfBuB7JvL1-9" value="" style="image;sketch=0;aspect=fixed;html=1;points=[];align=center;fontSize=12;image=img/lib/mscae/VM_Linux.svg;" parent="1" vertex="1">
          <mxGeometry x="520" y="207" width="60.87" height="56" as="geometry" />
        </mxCell>
        <mxCell id="7ONHv5lKK2GfBuB7JvL1-10" value="" style="sketch=0;points=[[0,0,0],[0.25,0,0],[0.5,0,0],[0.75,0,0],[1,0,0],[0,1,0],[0.25,1,0],[0.5,1,0],[0.75,1,0],[1,1,0],[0,0.25,0],[0,0.5,0],[0,0.75,0],[1,0.25,0],[1,0.5,0],[1,0.75,0]];outlineConnect=0;fontColor=#232F3E;gradientColor=#60A337;gradientDirection=north;fillColor=#277116;strokeColor=#ffffff;dashed=0;verticalLabelPosition=bottom;verticalAlign=top;align=center;html=1;fontSize=12;fontStyle=0;aspect=fixed;shape=mxgraph.aws4.resourceIcon;resIcon=mxgraph.aws4.backup;" parent="1" vertex="1">
          <mxGeometry x="614.44" y="560" width="50" height="50" as="geometry" />
        </mxCell>
        <mxCell id="7ONHv5lKK2GfBuB7JvL1-11" value="" style="sketch=0;points=[[0,0,0],[0.25,0,0],[0.5,0,0],[0.75,0,0],[1,0,0],[0,1,0],[0.25,1,0],[0.5,1,0],[0.75,1,0],[1,1,0],[0,0.25,0],[0,0.5,0],[0,0.75,0],[1,0.25,0],[1,0.5,0],[1,0.75,0]];outlineConnect=0;fontColor=#232F3E;gradientColor=#60A337;gradientDirection=north;fillColor=#277116;strokeColor=#ffffff;dashed=0;verticalLabelPosition=bottom;verticalAlign=top;align=center;html=1;fontSize=12;fontStyle=0;aspect=fixed;shape=mxgraph.aws4.resourceIcon;resIcon=mxgraph.aws4.backup;" parent="1" vertex="1">
          <mxGeometry x="690.44" y="560" width="50" height="50" as="geometry" />
        </mxCell>
        <mxCell id="5b1crxVSo52NuIJrR2hu-1" value="" style="image;aspect=fixed;perimeter=ellipsePerimeter;html=1;align=center;shadow=0;dashed=0;spacingTop=3;image=img/lib/active_directory/windows_server_2.svg;" parent="1" vertex="1">
          <mxGeometry x="465.6" y="483" width="54.4" height="68" as="geometry" />
        </mxCell>
        <mxCell id="5b1crxVSo52NuIJrR2hu-3" value="" style="verticalLabelPosition=bottom;html=1;verticalAlign=top;align=center;strokeColor=none;fillColor=#00BEF2;shape=mxgraph.azure.vhd;pointerEvents=1;" parent="1" vertex="1">
          <mxGeometry x="540" y="530" width="30" height="40" as="geometry" />
        </mxCell>
        <mxCell id="5b1crxVSo52NuIJrR2hu-6" value="" style="verticalLabelPosition=bottom;html=1;verticalAlign=top;align=center;strokeColor=none;fillColor=#00BEF2;shape=mxgraph.azure.vhd;pointerEvents=1;" parent="1" vertex="1">
          <mxGeometry x="539" y="483" width="30" height="40" as="geometry" />
        </mxCell>
        <mxCell id="5b1crxVSo52NuIJrR2hu-7" value="" style="sketch=0;points=[[0,0,0],[0.25,0,0],[0.5,0,0],[0.75,0,0],[1,0,0],[0,1,0],[0.25,1,0],[0.5,1,0],[0.75,1,0],[1,1,0],[0,0.25,0],[0,0.5,0],[0,0.75,0],[1,0.25,0],[1,0.5,0],[1,0.75,0]];outlineConnect=0;fontColor=#232F3E;gradientColor=#60A337;gradientDirection=north;fillColor=#277116;strokeColor=#ffffff;dashed=0;verticalLabelPosition=bottom;verticalAlign=top;align=center;html=1;fontSize=12;fontStyle=0;aspect=fixed;shape=mxgraph.aws4.resourceIcon;resIcon=mxgraph.aws4.backup;" parent="1" vertex="1">
          <mxGeometry x="183" y="780" width="50" height="50" as="geometry" />
        </mxCell>
        <mxCell id="5b1crxVSo52NuIJrR2hu-8" value="&lt;b&gt;&lt;font style=&quot;font-size: 15px;&quot;&gt;Infrastructure&lt;/font&gt;&lt;/b&gt;" style="text;html=1;strokeColor=none;fillColor=none;align=center;verticalAlign=middle;whiteSpace=wrap;rounded=0;" parent="1" vertex="1">
          <mxGeometry x="620" y="100" width="102" height="30" as="geometry" />
        </mxCell>
        <mxCell id="5b1crxVSo52NuIJrR2hu-9" value="&lt;span style=&quot;font-size: 15px;&quot;&gt;&lt;b&gt;SRV-AD1&lt;/b&gt;&lt;/span&gt;" style="text;html=1;strokeColor=none;fillColor=none;align=center;verticalAlign=middle;whiteSpace=wrap;rounded=0;" parent="1" vertex="1">
          <mxGeometry x="144" y="160" width="102" height="30" as="geometry" />
        </mxCell>
        <mxCell id="5b1crxVSo52NuIJrR2hu-10" value="&lt;span style=&quot;font-size: 15px;&quot;&gt;&lt;b&gt;SRV-AD2&lt;/b&gt;&lt;/span&gt;" style="text;html=1;strokeColor=none;fillColor=none;align=center;verticalAlign=middle;whiteSpace=wrap;rounded=0;" parent="1" vertex="1">
          <mxGeometry x="363" y="160" width="102" height="30" as="geometry" />
        </mxCell>
        <mxCell id="5b1crxVSo52NuIJrR2hu-11" value="&lt;span style=&quot;font-size: 15px;&quot;&gt;&lt;b&gt;SRV-WEB&lt;/b&gt;&lt;/span&gt;" style="text;html=1;strokeColor=none;fillColor=none;align=center;verticalAlign=middle;whiteSpace=wrap;rounded=0;" parent="1" vertex="1">
          <mxGeometry x="441.8" y="160" width="102" height="30" as="geometry" />
        </mxCell>
        <mxCell id="5b1crxVSo52NuIJrR2hu-12" value="&lt;span style=&quot;font-size: 15px;&quot;&gt;&lt;b&gt;SRV-GLPI&lt;/b&gt;&lt;/span&gt;" style="text;html=1;strokeColor=none;fillColor=none;align=center;verticalAlign=middle;whiteSpace=wrap;rounded=0;" parent="1" vertex="1">
          <mxGeometry x="530" y="160" width="102" height="30" as="geometry" />
        </mxCell>
        <mxCell id="5b1crxVSo52NuIJrR2hu-13" value="&lt;span style=&quot;font-size: 15px;&quot;&gt;&lt;b&gt;PfSense&lt;/b&gt;&lt;/span&gt;" style="text;html=1;strokeColor=none;fillColor=none;align=center;verticalAlign=middle;whiteSpace=wrap;rounded=0;" parent="1" vertex="1">
          <mxGeometry x="304.55" y="350" width="102" height="30" as="geometry" />
        </mxCell>
        <mxCell id="5b1crxVSo52NuIJrR2hu-14" value="&lt;span style=&quot;font-size: 15px;&quot;&gt;&lt;b&gt;Proxmox&lt;/b&gt;&lt;/span&gt;" style="text;html=1;strokeColor=none;fillColor=none;align=center;verticalAlign=middle;whiteSpace=wrap;rounded=0;" parent="1" vertex="1">
          <mxGeometry x="243.55" y="555" width="102" height="30" as="geometry" />
        </mxCell>
        <mxCell id="5b1crxVSo52NuIJrR2hu-15" value="&lt;span style=&quot;font-size: 15px;&quot;&gt;&lt;b&gt;SRV-VEEAM&lt;/b&gt;&lt;/span&gt;" style="text;html=1;strokeColor=none;fillColor=none;align=center;verticalAlign=middle;whiteSpace=wrap;rounded=0;" parent="1" vertex="1">
          <mxGeometry x="431.43" y="440" width="102" height="30" as="geometry" />
        </mxCell>
        <mxCell id="5b1crxVSo52NuIJrR2hu-16" value="&lt;span style=&quot;font-size: 15px;&quot;&gt;&lt;b&gt;50G HDD&lt;/b&gt;&lt;/span&gt;" style="text;html=1;strokeColor=none;fillColor=none;align=center;verticalAlign=middle;whiteSpace=wrap;rounded=0;" parent="1" vertex="1">
          <mxGeometry x="520" y="580" width="76" height="30" as="geometry" />
        </mxCell>
        <mxCell id="5b1crxVSo52NuIJrR2hu-17" value="&lt;span style=&quot;font-size: 15px;&quot;&gt;&lt;b&gt;60G HDD&lt;/b&gt;&lt;/span&gt;" style="text;html=1;strokeColor=none;fillColor=none;align=center;verticalAlign=middle;whiteSpace=wrap;rounded=0;" parent="1" vertex="1">
          <mxGeometry x="580.87" y="483" width="76" height="30" as="geometry" />
        </mxCell>
        <mxCell id="5b1crxVSo52NuIJrR2hu-18" value="&lt;span style=&quot;font-size: 15px;&quot;&gt;&lt;b&gt;Backup 2&lt;/b&gt;&lt;/span&gt;" style="text;html=1;strokeColor=none;fillColor=none;align=center;verticalAlign=middle;whiteSpace=wrap;rounded=0;" parent="1" vertex="1">
          <mxGeometry x="677.44" y="523" width="76" height="30" as="geometry" />
        </mxCell>
        <mxCell id="5b1crxVSo52NuIJrR2hu-19" value="&lt;span style=&quot;font-size: 15px;&quot;&gt;&lt;b&gt;Backup 1&lt;/b&gt;&lt;/span&gt;" style="text;html=1;strokeColor=none;fillColor=none;align=center;verticalAlign=middle;whiteSpace=wrap;rounded=0;" parent="1" vertex="1">
          <mxGeometry x="601.44" y="523" width="76" height="30" as="geometry" />
        </mxCell>
        <mxCell id="5b1crxVSo52NuIJrR2hu-22" value="" style="image;points=[];aspect=fixed;html=1;align=center;shadow=0;dashed=0;image=img/lib/allied_telesis/computer_and_terminals/Laptop.svg;" parent="1" vertex="1">
          <mxGeometry x="167.45" y="710" width="42" height="42.599999999999994" as="geometry" />
        </mxCell>
        <mxCell id="5b1crxVSo52NuIJrR2hu-24" value="&lt;b&gt;&lt;font style=&quot;font-size: 15px;&quot;&gt;Plan 3, 2, 1&lt;/font&gt;&lt;/b&gt;" style="text;html=1;strokeColor=none;fillColor=none;align=center;verticalAlign=middle;whiteSpace=wrap;rounded=0;" parent="1" vertex="1">
          <mxGeometry x="363.6" y="90" width="102" height="30" as="geometry" />
        </mxCell>
        <mxCell id="5b1crxVSo52NuIJrR2hu-25" value="&lt;span style=&quot;font-size: 15px;&quot;&gt;&lt;b&gt;Externe&lt;/b&gt;&lt;/span&gt;" style="text;html=1;strokeColor=none;fillColor=none;align=center;verticalAlign=middle;whiteSpace=wrap;rounded=0;" parent="1" vertex="1">
          <mxGeometry x="157" y="660" width="102" height="30" as="geometry" />
        </mxCell>
        <mxCell id="5b1crxVSo52NuIJrR2hu-27" value="" style="verticalLabelPosition=bottom;html=1;verticalAlign=top;align=center;strokeColor=none;fillColor=#00BEF2;shape=mxgraph.azure.vhd;pointerEvents=1;" parent="1" vertex="1">
          <mxGeometry x="229" y="712.6" width="30" height="40" as="geometry" />
        </mxCell>
        <mxCell id="5b1crxVSo52NuIJrR2hu-28" value="&lt;span style=&quot;font-size: 15px;&quot;&gt;&lt;b&gt;Backup 3&lt;/b&gt;&lt;/span&gt;" style="text;html=1;strokeColor=none;fillColor=none;align=center;verticalAlign=middle;whiteSpace=wrap;rounded=0;" parent="1" vertex="1">
          <mxGeometry x="170" y="840" width="76" height="30" as="geometry" />
        </mxCell>
        <mxCell id="5b1crxVSo52NuIJrR2hu-30" value="" style="endArrow=none;html=1;rounded=0;entryX=0.495;entryY=1.04;entryDx=0;entryDy=0;entryPerimeter=0;" parent="1" target="7ONHv5lKK2GfBuB7JvL1-3" edge="1">
          <mxGeometry width="50" height="50" relative="1" as="geometry">
            <mxPoint x="353.55" y="510" as="sourcePoint" />
            <mxPoint x="403.55" y="460" as="targetPoint" />
          </mxGeometry>
        </mxCell>
        <mxCell id="5b1crxVSo52NuIJrR2hu-31" value="" style="endArrow=none;html=1;rounded=0;entryX=0;entryY=0.75;entryDx=0;entryDy=0;" parent="1" target="5b1crxVSo52NuIJrR2hu-1" edge="1">
          <mxGeometry width="50" height="50" relative="1" as="geometry">
            <mxPoint x="423.55" y="533" as="sourcePoint" />
            <mxPoint x="473.55" y="483" as="targetPoint" />
          </mxGeometry>
        </mxCell>
        <mxCell id="5b1crxVSo52NuIJrR2hu-32" value="" style="endArrow=none;html=1;rounded=0;" parent="1" target="7ONHv5lKK2GfBuB7JvL1-5" edge="1">
          <mxGeometry width="50" height="50" relative="1" as="geometry">
            <mxPoint x="376" y="510" as="sourcePoint" />
            <mxPoint x="426" y="460" as="targetPoint" />
          </mxGeometry>
        </mxCell>
        <mxCell id="5b1crxVSo52NuIJrR2hu-33" value="" style="endArrow=none;html=1;rounded=0;exitX=0.015;exitY=0.03;exitDx=0;exitDy=0;exitPerimeter=0;" parent="1" source="7ONHv5lKK2GfBuB7JvL1-2" edge="1">
          <mxGeometry width="50" height="50" relative="1" as="geometry">
            <mxPoint x="209" y="465" as="sourcePoint" />
            <mxPoint x="259" y="415" as="targetPoint" />
          </mxGeometry>
        </mxCell>
        <mxCell id="5b1crxVSo52NuIJrR2hu-34" value="" style="endArrow=none;html=1;rounded=0;" parent="1" source="7ONHv5lKK2GfBuB7JvL1-4" edge="1">
          <mxGeometry width="50" height="50" relative="1" as="geometry">
            <mxPoint x="144" y="313" as="sourcePoint" />
            <mxPoint x="194" y="263" as="targetPoint" />
          </mxGeometry>
        </mxCell>
        <mxCell id="5b1crxVSo52NuIJrR2hu-35" value="" style="endArrow=none;html=1;rounded=0;" parent="1" source="7ONHv5lKK2GfBuB7JvL1-5" edge="1">
          <mxGeometry width="50" height="50" relative="1" as="geometry">
            <mxPoint x="353.55" y="315" as="sourcePoint" />
            <mxPoint x="403.55" y="265" as="targetPoint" />
          </mxGeometry>
        </mxCell>
        <mxCell id="5b1crxVSo52NuIJrR2hu-36" value="" style="endArrow=none;html=1;rounded=0;" parent="1" edge="1">
          <mxGeometry width="50" height="50" relative="1" as="geometry">
            <mxPoint x="512.87" y="315" as="sourcePoint" />
            <mxPoint x="562.87" y="265" as="targetPoint" />
          </mxGeometry>
        </mxCell>
        <mxCell id="5b1crxVSo52NuIJrR2hu-37" value="" style="endArrow=none;html=1;rounded=0;" parent="1" source="7ONHv5lKK2GfBuB7JvL1-5" edge="1">
          <mxGeometry width="50" height="50" relative="1" as="geometry">
            <mxPoint x="439" y="313" as="sourcePoint" />
            <mxPoint x="489" y="263" as="targetPoint" />
          </mxGeometry>
        </mxCell>
        <mxCell id="5b1crxVSo52NuIJrR2hu-39" value="" style="sketch=0;points=[[0.015,0.015,0],[0.985,0.015,0],[0.985,0.985,0],[0.015,0.985,0],[0.25,0,0],[0.5,0,0],[0.75,0,0],[1,0.25,0],[1,0.5,0],[1,0.75,0],[0.75,1,0],[0.5,1,0],[0.25,1,0],[0,0.75,0],[0,0.5,0],[0,0.25,0]];verticalLabelPosition=bottom;html=1;verticalAlign=top;aspect=fixed;align=center;pointerEvents=1;shape=mxgraph.cisco19.rect;prIcon=l3_switch;fillColor=#FAFAFA;strokeColor=#005073;" parent="1" vertex="1">
          <mxGeometry x="332" y="600" width="50" height="50" as="geometry" />
        </mxCell>
        <mxCell id="5b1crxVSo52NuIJrR2hu-40" value="&lt;span style=&quot;font-size: 15px;&quot;&gt;&lt;b&gt;Switch L3&lt;/b&gt;&lt;/span&gt;" style="text;html=1;strokeColor=none;fillColor=none;align=center;verticalAlign=middle;whiteSpace=wrap;rounded=0;" parent="1" vertex="1">
          <mxGeometry x="227" y="600" width="102" height="30" as="geometry" />
        </mxCell>
        <mxCell id="5b1crxVSo52NuIJrR2hu-41" value="" style="endArrow=none;html=1;rounded=0;exitX=0.579;exitY=-0.031;exitDx=0;exitDy=0;exitPerimeter=0;entryX=0.015;entryY=0.985;entryDx=0;entryDy=0;entryPerimeter=0;" parent="1" source="5b1crxVSo52NuIJrR2hu-22" edge="1" target="5b1crxVSo52NuIJrR2hu-39">
          <mxGeometry width="50" height="50" relative="1" as="geometry">
            <mxPoint x="313" y="700" as="sourcePoint" />
            <mxPoint x="363" y="650" as="targetPoint" />
          </mxGeometry>
        </mxCell>
        <mxCell id="5b1crxVSo52NuIJrR2hu-42" value="" style="endArrow=none;html=1;rounded=0;exitX=0.5;exitY=0;exitDx=0;exitDy=0;exitPerimeter=0;" parent="1" source="5b1crxVSo52NuIJrR2hu-39" edge="1">
          <mxGeometry width="50" height="50" relative="1" as="geometry">
            <mxPoint x="313" y="601" as="sourcePoint" />
            <mxPoint x="363" y="551" as="targetPoint" />
          </mxGeometry>
        </mxCell>
        <mxCell id="ldkix52bEkoFvHIhopIW-1" value="" style="sketch=0;points=[[0,0,0],[0.25,0,0],[0.5,0,0],[0.75,0,0],[1,0,0],[0,1,0],[0.25,1,0],[0.5,1,0],[0.75,1,0],[1,1,0],[0,0.25,0],[0,0.5,0],[0,0.75,0],[1,0.25,0],[1,0.5,0],[1,0.75,0]];outlineConnect=0;fontColor=#232F3E;gradientColor=#60A337;gradientDirection=north;fillColor=#277116;strokeColor=#ffffff;dashed=0;verticalLabelPosition=bottom;verticalAlign=top;align=center;html=1;fontSize=12;fontStyle=0;aspect=fixed;shape=mxgraph.aws4.resourceIcon;resIcon=mxgraph.aws4.backup;" vertex="1" parent="1">
          <mxGeometry x="295.55" y="780" width="50" height="50" as="geometry" />
        </mxCell>
        <mxCell id="ldkix52bEkoFvHIhopIW-2" value="" style="image;points=[];aspect=fixed;html=1;align=center;shadow=0;dashed=0;image=img/lib/allied_telesis/computer_and_terminals/Laptop.svg;" vertex="1" parent="1">
          <mxGeometry x="280" y="710" width="42" height="42.599999999999994" as="geometry" />
        </mxCell>
        <mxCell id="ldkix52bEkoFvHIhopIW-3" value="" style="verticalLabelPosition=bottom;html=1;verticalAlign=top;align=center;strokeColor=none;fillColor=#00BEF2;shape=mxgraph.azure.vhd;pointerEvents=1;" vertex="1" parent="1">
          <mxGeometry x="341.55" y="712.6" width="30" height="40" as="geometry" />
        </mxCell>
        <mxCell id="ldkix52bEkoFvHIhopIW-4" value="&lt;span style=&quot;font-size: 15px;&quot;&gt;&lt;b&gt;Backup 4&lt;/b&gt;&lt;/span&gt;" style="text;html=1;strokeColor=none;fillColor=none;align=center;verticalAlign=middle;whiteSpace=wrap;rounded=0;" vertex="1" parent="1">
          <mxGeometry x="282.55" y="840" width="76" height="30" as="geometry" />
        </mxCell>
        <mxCell id="ldkix52bEkoFvHIhopIW-5" value="" style="sketch=0;points=[[0,0,0],[0.25,0,0],[0.5,0,0],[0.75,0,0],[1,0,0],[0,1,0],[0.25,1,0],[0.5,1,0],[0.75,1,0],[1,1,0],[0,0.25,0],[0,0.5,0],[0,0.75,0],[1,0.25,0],[1,0.5,0],[1,0.75,0]];outlineConnect=0;fontColor=#232F3E;gradientColor=#60A337;gradientDirection=north;fillColor=#277116;strokeColor=#ffffff;dashed=0;verticalLabelPosition=bottom;verticalAlign=top;align=center;html=1;fontSize=12;fontStyle=0;aspect=fixed;shape=mxgraph.aws4.resourceIcon;resIcon=mxgraph.aws4.backup;" vertex="1" parent="1">
          <mxGeometry x="405.55" y="780" width="50" height="50" as="geometry" />
        </mxCell>
        <mxCell id="ldkix52bEkoFvHIhopIW-6" value="" style="image;points=[];aspect=fixed;html=1;align=center;shadow=0;dashed=0;image=img/lib/allied_telesis/computer_and_terminals/Laptop.svg;" vertex="1" parent="1">
          <mxGeometry x="390" y="710" width="42" height="42.599999999999994" as="geometry" />
        </mxCell>
        <mxCell id="ldkix52bEkoFvHIhopIW-7" value="" style="verticalLabelPosition=bottom;html=1;verticalAlign=top;align=center;strokeColor=none;fillColor=#00BEF2;shape=mxgraph.azure.vhd;pointerEvents=1;" vertex="1" parent="1">
          <mxGeometry x="451.55" y="712.6" width="30" height="40" as="geometry" />
        </mxCell>
        <mxCell id="ldkix52bEkoFvHIhopIW-8" value="&lt;span style=&quot;font-size: 15px;&quot;&gt;&lt;b&gt;Backup 5&lt;/b&gt;&lt;/span&gt;" style="text;html=1;strokeColor=none;fillColor=none;align=center;verticalAlign=middle;whiteSpace=wrap;rounded=0;" vertex="1" parent="1">
          <mxGeometry x="392.55" y="840" width="76" height="30" as="geometry" />
        </mxCell>
        <mxCell id="ldkix52bEkoFvHIhopIW-9" value="" style="sketch=0;points=[[0,0,0],[0.25,0,0],[0.5,0,0],[0.75,0,0],[1,0,0],[0,1,0],[0.25,1,0],[0.5,1,0],[0.75,1,0],[1,1,0],[0,0.25,0],[0,0.5,0],[0,0.75,0],[1,0.25,0],[1,0.5,0],[1,0.75,0]];outlineConnect=0;fontColor=#232F3E;gradientColor=#60A337;gradientDirection=north;fillColor=#277116;strokeColor=#ffffff;dashed=0;verticalLabelPosition=bottom;verticalAlign=top;align=center;html=1;fontSize=12;fontStyle=0;aspect=fixed;shape=mxgraph.aws4.resourceIcon;resIcon=mxgraph.aws4.backup;" vertex="1" parent="1">
          <mxGeometry x="520.21" y="782.6" width="50" height="50" as="geometry" />
        </mxCell>
        <mxCell id="ldkix52bEkoFvHIhopIW-10" value="" style="image;points=[];aspect=fixed;html=1;align=center;shadow=0;dashed=0;image=img/lib/allied_telesis/computer_and_terminals/Laptop.svg;" vertex="1" parent="1">
          <mxGeometry x="504.65999999999997" y="712.6" width="42" height="42.599999999999994" as="geometry" />
        </mxCell>
        <mxCell id="ldkix52bEkoFvHIhopIW-11" value="" style="verticalLabelPosition=bottom;html=1;verticalAlign=top;align=center;strokeColor=none;fillColor=#00BEF2;shape=mxgraph.azure.vhd;pointerEvents=1;" vertex="1" parent="1">
          <mxGeometry x="553.21" y="715.2" width="30" height="40" as="geometry" />
        </mxCell>
        <mxCell id="ldkix52bEkoFvHIhopIW-12" value="&lt;span style=&quot;font-size: 15px;&quot;&gt;&lt;b&gt;Backup 6&lt;/b&gt;&lt;/span&gt;" style="text;html=1;strokeColor=none;fillColor=none;align=center;verticalAlign=middle;whiteSpace=wrap;rounded=0;" vertex="1" parent="1">
          <mxGeometry x="507.21000000000004" y="842.6" width="76" height="30" as="geometry" />
        </mxCell>
        <mxCell id="ldkix52bEkoFvHIhopIW-13" value="" style="endArrow=none;html=1;rounded=0;exitX=0.667;exitY=-0.164;exitDx=0;exitDy=0;exitPerimeter=0;" edge="1" parent="1" source="ldkix52bEkoFvHIhopIW-2">
          <mxGeometry width="50" height="50" relative="1" as="geometry">
            <mxPoint x="370.54999999999995" y="729" as="sourcePoint" />
            <mxPoint x="340.54999999999995" y="650" as="targetPoint" />
          </mxGeometry>
        </mxCell>
        <mxCell id="ldkix52bEkoFvHIhopIW-14" value="" style="endArrow=none;html=1;rounded=0;exitX=0.389;exitY=-0.061;exitDx=0;exitDy=0;exitPerimeter=0;" edge="1" parent="1" source="ldkix52bEkoFvHIhopIW-10">
          <mxGeometry width="50" height="50" relative="1" as="geometry">
            <mxPoint x="345.55" y="703" as="sourcePoint" />
            <mxPoint x="378.09999999999997" y="650" as="targetPoint" />
          </mxGeometry>
        </mxCell>
        <mxCell id="ldkix52bEkoFvHIhopIW-15" value="" style="endArrow=none;html=1;rounded=0;exitX=0.5;exitY=0;exitDx=0;exitDy=0;exitPerimeter=0;" edge="1" parent="1" source="ldkix52bEkoFvHIhopIW-6">
          <mxGeometry width="50" height="50" relative="1" as="geometry">
            <mxPoint x="338.27" y="703" as="sourcePoint" />
            <mxPoint x="370.81999999999994" y="650" as="targetPoint" />
          </mxGeometry>
        </mxCell>
        <mxCell id="ldkix52bEkoFvHIhopIW-17" value="" style="sketch=0;points=[[0,0,0],[0.25,0,0],[0.5,0,0],[0.75,0,0],[1,0,0],[0,1,0],[0.25,1,0],[0.5,1,0],[0.75,1,0],[1,1,0],[0,0.25,0],[0,0.5,0],[0,0.75,0],[1,0.25,0],[1,0.5,0],[1,0.75,0]];outlineConnect=0;fontColor=#232F3E;gradientColor=#60A337;gradientDirection=north;fillColor=#277116;strokeColor=#ffffff;dashed=0;verticalLabelPosition=bottom;verticalAlign=top;align=center;html=1;fontSize=12;fontStyle=0;aspect=fixed;shape=mxgraph.aws4.resourceIcon;resIcon=mxgraph.aws4.backup;" vertex="1" parent="1">
          <mxGeometry x="209.45000000000005" y="501" width="50" height="50" as="geometry" />
        </mxCell>
        <mxCell id="ldkix52bEkoFvHIhopIW-19" value="&lt;span style=&quot;font-size: 15px;&quot;&gt;&lt;b&gt;Backup&lt;br&gt;Infra&lt;br&gt;&lt;/b&gt;&lt;/span&gt;" style="text;html=1;strokeColor=none;fillColor=none;align=center;verticalAlign=middle;whiteSpace=wrap;rounded=0;" vertex="1" parent="1">
          <mxGeometry x="116" y="513" width="102" height="30" as="geometry" />
        </mxCell>
        <mxCell id="ldkix52bEkoFvHIhopIW-22" value="" style="sketch=0;points=[[0,0,0],[0.25,0,0],[0.5,0,0],[0.75,0,0],[1,0,0],[0,1,0],[0.25,1,0],[0.5,1,0],[0.75,1,0],[1,1,0],[0,0.25,0],[0,0.5,0],[0,0.75,0],[1,0.25,0],[1,0.5,0],[1,0.75,0]];outlineConnect=0;fontColor=#232F3E;gradientColor=#60A337;gradientDirection=north;fillColor=#277116;strokeColor=#ffffff;dashed=0;verticalLabelPosition=bottom;verticalAlign=top;align=center;html=1;fontSize=12;fontStyle=0;aspect=fixed;shape=mxgraph.aws4.resourceIcon;resIcon=mxgraph.aws4.backup;" vertex="1" parent="1">
          <mxGeometry x="685.22" y="782.6" width="50" height="50" as="geometry" />
        </mxCell>
        <mxCell id="ldkix52bEkoFvHIhopIW-23" value="" style="image;points=[];aspect=fixed;html=1;align=center;shadow=0;dashed=0;image=img/lib/allied_telesis/computer_and_terminals/Laptop.svg;" vertex="1" parent="1">
          <mxGeometry x="669.6700000000001" y="712.6" width="42" height="42.599999999999994" as="geometry" />
        </mxCell>
        <mxCell id="ldkix52bEkoFvHIhopIW-24" value="" style="verticalLabelPosition=bottom;html=1;verticalAlign=top;align=center;strokeColor=none;fillColor=#00BEF2;shape=mxgraph.azure.vhd;pointerEvents=1;" vertex="1" parent="1">
          <mxGeometry x="731.22" y="715.2" width="30" height="40" as="geometry" />
        </mxCell>
        <mxCell id="ldkix52bEkoFvHIhopIW-26" value="&lt;span style=&quot;font-size: 15px;&quot;&gt;&lt;b&gt;Cloud&lt;br&gt;&lt;/b&gt;&lt;/span&gt;" style="text;html=1;strokeColor=none;fillColor=none;align=center;verticalAlign=middle;whiteSpace=wrap;rounded=0;" vertex="1" parent="1">
          <mxGeometry x="664.44" y="650" width="102" height="30" as="geometry" />
        </mxCell>
        <mxCell id="ldkix52bEkoFvHIhopIW-27" value="&lt;span style=&quot;font-size: 15px;&quot;&gt;&lt;b&gt;Backup 7&lt;/b&gt;&lt;/span&gt;" style="text;html=1;strokeColor=none;fillColor=none;align=center;verticalAlign=middle;whiteSpace=wrap;rounded=0;" vertex="1" parent="1">
          <mxGeometry x="672.22" y="842.6" width="76" height="30" as="geometry" />
        </mxCell>
        <mxCell id="ldkix52bEkoFvHIhopIW-29" value="&lt;span style=&quot;font-size: 15px;&quot;&gt;&lt;b&gt;HDD Externe&lt;br&gt;&lt;/b&gt;&lt;/span&gt;" style="text;html=1;strokeColor=none;fillColor=none;align=center;verticalAlign=middle;whiteSpace=wrap;rounded=0;" vertex="1" parent="1">
          <mxGeometry x="19" y="650" width="102" height="30" as="geometry" />
        </mxCell>
        <mxCell id="ldkix52bEkoFvHIhopIW-30" value="" style="verticalLabelPosition=bottom;html=1;verticalAlign=top;align=center;strokeColor=none;fillColor=#00BEF2;shape=mxgraph.azure.vhd;pointerEvents=1;" vertex="1" parent="1">
          <mxGeometry x="40" y="695.2" width="50" height="60" as="geometry" />
        </mxCell>
        <mxCell id="ldkix52bEkoFvHIhopIW-31" value="" style="sketch=0;points=[[0,0,0],[0.25,0,0],[0.5,0,0],[0.75,0,0],[1,0,0],[0,1,0],[0.25,1,0],[0.5,1,0],[0.75,1,0],[1,1,0],[0,0.25,0],[0,0.5,0],[0,0.75,0],[1,0.25,0],[1,0.5,0],[1,0.75,0]];outlineConnect=0;fontColor=#232F3E;gradientColor=#60A337;gradientDirection=north;fillColor=#277116;strokeColor=#ffffff;dashed=0;verticalLabelPosition=bottom;verticalAlign=top;align=center;html=1;fontSize=12;fontStyle=0;aspect=fixed;shape=mxgraph.aws4.resourceIcon;resIcon=mxgraph.aws4.backup;" vertex="1" parent="1">
          <mxGeometry x="40" y="770" width="50" height="50" as="geometry" />
        </mxCell>
        <mxCell id="ldkix52bEkoFvHIhopIW-32" value="&lt;span style=&quot;font-size: 15px;&quot;&gt;&lt;b&gt;Backup 8&lt;br&gt;&lt;/b&gt;&lt;/span&gt;" style="text;html=1;strokeColor=none;fillColor=none;align=center;verticalAlign=middle;whiteSpace=wrap;rounded=0;" vertex="1" parent="1">
          <mxGeometry x="27" y="830" width="76" height="30" as="geometry" />
        </mxCell>
      </root>
    </mxGraphModel>
  </diagram>
</mxfile>
